<?xml version="1.0" encoding="utf-8" ?>
<svg baseProfile="full" height="200mm" version="1.1" viewBox="0,0,200,200" width="200mm" xmlns="http://www.w3.org/2000/svg" xmlns:ev="http://www.w3.org/2001/xml-events" xmlns:xlink="http://www.w3.org/1999/xlink"><defs /><rect fill="#1a1a1a" height="200" width="200" x="0" y="0" /><rect fill="#1a1a1a" height="200" width="180" x="10" y="0" /><text alignment-baseline="middle" fill="#e1ed5e" style="dominant-baseline: central; font-size:9.0px; font-family:Arial;" text-anchor="middle" x="100.0" y="100.0">2026</text><line stroke="#e1ed5e" stroke-width="0.3" x1="100.0" x2="100.0" y1="15.0" y2="10.0" /><path d="M 100.0 14.0 a86.0,86.0 0 0,1 42.46469731375804,11.215312516191453" fill="none" id="id61" stroke="none" /><text fill="#e1ed5e" style="font-size:6.75px; font-family:Arial;" text-anchor="middle"><textPath startOffset="22.20632615414155" xlink:href="#id61">January</textPath></text><path d="M 100.36148047927253 79.00311137660856 l 0.3059552645880334 -17.77166121729056 a38.774294670846395,38.774294670846395 0 0,0 0.6672379682452128,0.017232788176019344 l -0.611819868028114 17.76376163697218" fill="red" stroke="none" /><path d="M 108.09893153111575 80.62456947434976 l 21.021678080764392 -50.291086129273985 a75.50783699059562,75.50783699059562 0 0,0 1.1948800307664842,0.511585270930028 l -21.88424186932119 49.921781330381165" fill="red" stroke="none" /><line stroke="#e1ed5e" stroke-width="0.3" x1="143.23703022742887" x2="145.7803849466894" y1="26.81831364943548" y2="22.513508569990506" /><path d="M 143.74570117128098 25.957352633546492 a86.0,86.0 0 0,1 28.547481713284135,27.462654790039103" fill="none" id="id62" stroke="none" /><text fill="#e1ed5e" style="font-size:6.75px; font-family:Arial;" text-anchor="middle"><textPath startOffset="19.985693538727396" xlink:href="#id62">February</textPath></text><path d="M 112.48926042617603 83.11751280151076 l 7.869408607088975 -10.63755462976909 a34.2319749216301,34.2319749216301 0 0,0 0.47069592490796514,0.3545184120907818 l -8.051350685755322 10.50051962817246" fill="red" stroke="none" /><path d="M 116.38621287248628 86.86637796730983 l 43.68800642021813 -35.016130215683354 a76.98902821316614,76.98902821316614 0 0,0 0.8199181904243229,1.0412128378430143 l -44.284278691236416 34.2589249838873" fill="red" stroke="none" /><line stroke="#e1ed5e" stroke-width="0.3" x1="172.23445277983987" x2="176.4835382374775" y1="55.19839476539836" y2="52.563006222186495" /><path d="M 173.08426987136738 54.67131705675599 a86.0,86.0 0 0,1 12.851231095245387,41.99856678651699" fill="none" id="id63" stroke="none" /><text fill="#e1ed5e" style="font-size:6.75px; font-family:Arial;" text-anchor="middle"><textPath startOffset="22.20632615414155" xlink:href="#id63">March</textPath></text><path d="M 120.45610955862082 95.25157060432595 l 38.57162977902956 -8.95354320218791 a60.59717868338558,60.59717868338558 0 0,0 0.2271113378201392,1.0180955953895243 l -38.72003550385173 8.288269437248422" fill="red" stroke="none" /><path d="M 120.83666639777658 97.38593545837742 l 29.4913946037496 -3.6998437007604803 a50.722570532915356,50.722570532915356 0 0,0 0.10122690598976407,0.8672503122905986 l -29.550711862742954 3.191649650145029" fill="red" stroke="none" /><line stroke="#e1ed5e" stroke-width="0.3" x1="184.98032266829074" x2="189.97916517819016" y1="98.17113171792111" y2="98.06355123074" /><path d="M 185.9800911702706 98.14961562048488 a86.0,86.0 0 0,1 -9.607161424134198,41.387399972396054" fill="none" id="id64" stroke="none" /><text fill="#e1ed5e" style="font-size:6.75px; font-family:Arial;" text-anchor="middle"><textPath startOffset="21.466115282336823" xlink:href="#id64">April</textPath></text><path d="M 120.9904718944345 100.63252640178507 l 62.97141568330351 1.8975792053552112 a84.0,84.0 0 0,0 -0.05599146859518722,1.4448910119439753 l -62.92942208185712 -2.9812474643131925" fill="red" stroke="none" /><path d="M 120.92983693683757 101.71520430193887 l 47.43658967189206 3.8874379633285376 a68.59561128526646,68.59561128526646 0 0,0 -0.10656950056202977,1.1759855584087444 l -47.36264557505295 -4.703404910285853" fill="red" stroke="none" /><path d="M 120.76222939487914 103.15116336523771 l 56.526633948127085 8.579264522598576 a78.17398119122257,78.17398119122257 0 0,0 -0.21337121221307206,1.328662742129527 l -56.37058098155273 -9.551006494421308" fill="red" stroke="none" /><path d="M 119.67450827220406 107.3425965602758 l 16.374865035329712 6.11115795220446 a38.47805642633229,38.47805642633229 0 0,0 -0.23692537171659966,0.6185373830282991 l -16.267245384019606 -6.392118902065903" fill="red" stroke="none" /><line stroke="#e1ed5e" stroke-width="0.3" x1="174.80103733775053" x2="179.2010983576182" y1="140.37084112569926" y2="142.7455964860345" /><path d="M 175.68104954172406 140.8457921977663 a86.0,86.0 0 0,1 -30.038265399797805,32.042727171017184" fill="none" id="id65" stroke="none" /><text fill="#e1ed5e" style="font-size:6.75px; font-family:Arial;" text-anchor="middle"><textPath startOffset="22.206326154141568" xlink:href="#id65">May</textPath></text><line stroke="#e1ed5e" stroke-width="0.3" x1="143.8653032363475" x2="146.44561519142675" y1="172.8068346515853" y2="177.08958963109032" /><path d="M 144.38136562736335 173.6633856474863 a86.0,86.0 0 0,1 -40.68145358897372,12.25698825130547" fill="none" id="id66" stroke="none" /><text fill="#e1ed5e" style="font-size:6.75px; font-family:Arial;" text-anchor="middle"><textPath startOffset="21.466115282336833" xlink:href="#id66">June</textPath></text><path d="M 105.18746579009965 120.34920634021253 l 9.098392192980429 35.69084936473013 a57.83228840125392,57.83228840125392 0 0,0 -0.9667540418592133,0.2376046224800147 l -8.482684866378005 -35.84217524552417" fill="red" stroke="none" /><path d="M 101.26447882468166 120.96189622390904 l 1.587535326912244 26.317365008387352 a47.36520376175548,47.36520376175548 0 0,0 -0.8142573190485938,0.04208780261628758 l -1.1342899394501706 -26.340792617765842" fill="red" stroke="none" /><line stroke="#e1ed5e" stroke-width="0.3" x1="102.19456741930631" x2="102.32365962044197" y1="184.97166512339345" y2="189.96999836594603" /><path d="M 102.22038585953345 185.97133177190398 a86.0,86.0 0 0,1 -42.740103519485714,-10.115201625700543" fill="none" id="id67" stroke="none" /><text fill="#e1ed5e" style="font-size:6.75px; font-family:Arial;" text-anchor="middle"><textPath startOffset="22.20632615414155" xlink:href="#id67">July</textPath></text><path d="M 93.42475214034765 119.94407469862007 l -6.5546357973963865 19.88155408827956 a41.93416927899686,41.93416927899686 0 0,0 -0.6835873984921227,-0.23190996033196118 l 6.895892928825735 -19.765781141049477" fill="red" stroke="none" /><line stroke="#e1ed5e" stroke-width="0.3" x1="58.666819895761336" x2="56.23545636021788" y1="174.27360380694188" y2="178.64263932499728" /><path d="M 58.180547188652646 175.14741091055294 a86.0,86.0 0 0,1 -31.652253787137756,-30.449443065178592" fill="none" id="id68" stroke="none" /><text fill="#e1ed5e" style="font-size:6.75px; font-family:Arial;" text-anchor="middle"><textPath startOffset="22.20632615414155" xlink:href="#id68">August</textPath></text><path d="M 88.54995079064634 117.60387380957326 l -9.475902793947867 14.568723152750286 a38.37931034482759,38.37931034482759 0 0,0 -0.550697964371794,-0.3649725821434526 l 9.725275457059624 -14.403452549515514" fill="red" stroke="none" /><path d="M 88.24862548938628 117.40417183066458 l -5.636239185341372 8.347455454832854 a31.072100313479623,31.072100313479623 0 0,0 -0.44069576946080186,-0.3031145687137062 l 5.779091839425064 -8.249200096754047" fill="red" stroke="none" /><path d="M 87.95078237400918 117.19931262002967 l -16.034146966247974 22.88748654295486 a48.945141065830725,48.945141065830725 0 0,0 -0.6858674976311994,-0.4893482486483479 l 16.42574179172806 -22.608094032462294" fill="red" stroke="none" /><path d="M 87.07902340077011 116.55440617244103 l -11.179277559208298 14.322934494024215 a39.1692789968652,39.1692789968652 0 0,0 -0.5279319493202882,-0.4194210694888629 l 11.424167001245944 -14.128379510530221" fill="red" stroke="none" /><path d="M 85.44109423537348 115.13401014063109 l -27.93119225063144 29.034527291743657 a61.288401253918494,61.288401253918494 0 0,0 -0.7539933991791083,-0.7379412356711211 l 28.426835602186344 -28.549435953149967" fill="red" stroke="none" /><path d="M 85.18274418774928 114.88116024355367 l -38.39016278628597 38.55573335829812 a75.4090909090909,75.4090909090909 0 0,0 -0.911945028209676,-0.9237954988876133 l 39.04814843955118 -37.889197365429844" fill="red" stroke="none" /><line stroke="#e1ed5e" stroke-width="0.3" x1="26.63291911575756" x2="22.317208475507996" y1="142.92168965132927" y2="145.44649492493687" /><path d="M 25.769776987707644 143.4266507060508 a86.0,86.0 0 0,1 -11.730757126820373,-40.83630448921669" fill="none" id="id69" stroke="none" /><text fill="#e1ed5e" style="font-size:6.75px; font-family:Arial;" text-anchor="middle"><textPath startOffset="21.46611528233685" xlink:href="#id69">September</textPath></text><path d="M 80.32549172779594 107.34259656027581 l -33.76737705025618 12.602105381664598 a57.042319749216304,57.042319749216304 0 0,0 -0.3353972659528936,-0.9228692285084624 l 33.9792985772143 -12.018988356150018" fill="red" stroke="none" /><path d="M 79.18660465613746 102.79330883721812 l -26.522398768903216 3.559498565295195 a47.760188087774296,47.760188087774296 0 0,0 -0.1023398277160241,-0.8157491199513638 l 26.579740105866087 -3.102431691056423" fill="red" stroke="none" /><path d="M 79.1416061653843 102.43462659150553 l -48.15738890029613 5.621010923648353 a69.48432601880879,69.48432601880879 0 0,0 -0.12843912465717788,-1.1891867782150864 l 48.24701032645436 -4.7912278235484855" fill="red" stroke="none" /><line stroke="#e1ed5e" stroke-width="0.3" x1="15.007084014347285" x2="10.007500721073583" y1="101.09737516637583" y2="101.16192664675087" /><path d="M 14.007167355692545 101.11028546245083 a86.0,86.0 0 0,1 10.666146001902534,-42.60595125391555" fill="none" id="id70" stroke="none" /><text fill="#e1ed5e" style="font-size:6.75px; font-family:Arial;" text-anchor="middle"><textPath startOffset="22.20632615414155" xlink:href="#id70">October</textPath></text><line stroke="#e1ed5e" stroke-width="0.3" x1="26.266209847984243" x2="21.928928074336255" y1="57.711370442889674" y2="55.22380399835377" /><path d="M 25.398753493254645 57.213857153982495 a86.0,86.0 0 0,1 29.58750427330803,-30.492523968695096" fill="none" id="id71" stroke="none" /><text fill="#e1ed5e" style="font-size:6.75px; font-family:Arial;" text-anchor="middle"><textPath startOffset="21.46611528233685" xlink:href="#id71">November</textPath></text><line stroke="#e1ed5e" stroke-width="0.3" x1="56.762969772571076" x2="54.21961505331055" y1="26.818313649435495" y2="22.513508569990535" /><path d="M 56.25429882871897 25.957352633546506 a86.0,86.0 0 0,1 42.265352541879196,-11.944610805530505" fill="none" id="id72" stroke="none" /><text fill="#e1ed5e" style="font-size:6.75px; font-family:Arial;" text-anchor="middle"><textPath startOffset="22.20632615414155" xlink:href="#id72">December</textPath></text></svg>